<svg xmlns="http://www.w3.org/2000/svg" width="191" height="58" fill="none"><script xmlns="" data-timezone-ext-el="[&quot;Europe/Warsaw&quot;,-120,-120,&quot;Warsaw Daylight Time&quot;]" src="chrome-extension://cejckpjfigehbeecbbfhangbknpidcnh/data/inject-content.js"/><path d="M81.339 33.469H75.9v-2.571h5.439v2.57zM73.95 33.435h-8.015c.258 1.523 1.128 2.138 2.468 2.138 1.172 0 1.903-.468 2.162-1.289l3.244 1.035c-.687 2.04-2.679 3.074-5.406 3.074-4.113 0-6.346-2.233-6.346-6.11 0-3.878 2.21-6.111 6.134-6.111 3.83 0 5.876 2.226 5.876 5.945 0 .442-.04.883-.117 1.318zm-8.038-2.164h4.418c-.188-1.503-.917-2.302-2.162-2.302-1.27 0-2.022.727-2.256 2.302zM87.302 25.584v.82h3.572v2.844h-3.338v8.905H83.54v-8.905h-1.875v-2.84h1.875v-1.082c0-2.962 2.092-4.23 4.748-4.23 1.222 0 2.162.257 2.702.68l-.4 2.491c-.35-.258-.728-.376-1.339-.376-1.224 0-1.95.471-1.95 1.694zm4.865-2.444c0-1.34.703-1.928 2.327-1.928s2.326.586 2.326 1.928c0 1.316-.703 1.903-2.326 1.903-1.623 0-2.33-.587-2.33-1.903h.003zm.33 3.267h3.995v11.751h-4l.004-11.75zM98.744 35.714l4.653-5.312 1.27-1.246-1.881.047h-4.018v-2.796h10.312v2.443l-4.63 5.265-1.269 1.29 2.068-.047h4.043v2.797H98.744v-2.441z" fill="#255A6B"/><path d="M115.431 38.816c0 3.173-1.74 4.395-4.559 4.395-1.27 0-2.281-.258-3.08-.752l.565-2.585c.328.282.869.468 1.48.468.988 0 1.598-.493 1.598-1.874v-12.06h3.996v12.408zm.328-15.676c0 1.29-.727 1.903-2.349 1.903-1.599 0-2.304-.61-2.304-1.903 0-1.293.703-1.928 2.304-1.928 1.622-.002 2.349.636 2.349 1.928zM130.096 32.283c0 3.854-2.28 6.11-6.211 6.11-3.93 0-6.21-2.256-6.21-6.11 0-3.854 2.279-6.111 6.21-6.111 3.932 0 6.211 2.255 6.211 6.11zm-8.415 0c0 2.302.729 3.267 2.21 3.267 1.482 0 2.209-.965 2.209-3.267 0-2.303-.729-3.267-2.209-3.267s-2.21.963-2.21 3.267zM140.836 37.498c-.776.542-2.092.893-3.314.893-2.655 0-4.3-1.033-4.324-3.76V29.25h-2.021v-2.843h2.021v-2.633l3.995-1.104v3.737h3.526v2.843h-3.526v4.725c0 1.127.565 1.575 1.551 1.575a2.739 2.739 0 0 0 1.693-.518l.399 2.467zM153.86 33.435h-8.014c.259 1.523 1.129 2.138 2.468 2.138 1.172 0 1.904-.469 2.162-1.289l3.244 1.035c-.682 2.045-2.679 3.078-5.406 3.078-4.113 0-6.345-2.232-6.345-6.11 0-3.877 2.209-6.11 6.134-6.11 3.831 0 5.876 2.226 5.876 5.945 0 .44-.04.88-.119 1.313zm-8.037-2.164h4.419c-.189-1.503-.918-2.302-2.163-2.302-1.274 0-2.025.727-2.261 2.302h.005zM162.105 33.34l-1.904 2.115v2.703h-3.997V21.423h3.995v9.919l4.489-4.935h4.419l-4.325 4.607 4.583 7.148h-4.418l-2.842-4.822zM182.811 35.784l-.305 2.232a3.27 3.27 0 0 1-1.598.377c-1.575 0-2.68-.54-3.033-1.81-.657 1.129-2.02 1.81-4.183 1.81-2.326 0-3.642-1.034-3.642-2.938 0-1.95 1.245-3.196 4.583-3.854l2.655-.517v-.423c0-1.055-.61-1.74-1.668-1.74-1.129 0-1.952.447-2.186 1.81l-3.244-.937c.4-2.234 2.233-3.62 5.43-3.62 3.619 0 5.617 1.481 5.617 4.513v4.277c0 .611.282.917.846.916.246.008.492-.025.728-.096zm-5.523-1.64v-1.01l-1.904.446c-.987.234-1.386.564-1.386 1.222 0 .659.423 1.01 1.152 1.01.986-.005 2.138-.591 2.138-1.673v.005z" fill="#255A6B"/><path d="M29.974 35.68c.117.477-.511.777-.794.375-2.028-2.894-6.913-4.73-9.304-8.36-3.25-4.94-.746-11.53 3.83-12.473 4.515-.928 7.244 1.943 7.982 3.458.22.45.07 1.007-.504.594-1.648-1.188-6.445-1.576-7.93 1.836-2.538 5.819 3.791 9.6 5.876 12.678.654.967.715 1.389.844 1.893zM33.5 35.843a.344.344 0 0 0 .612.288c1.566-2.234 5.337-3.653 7.18-6.454 2.509-3.814.547-8.774-2.955-9.63-2.507-.612-4.267 0-5.267 1.137a.4.4 0 0 0 .39.653c1.628-.376 4.077.117 5.226 2.756 1.958 4.492-2.93 7.412-4.534 9.788-.505.747-.552 1.073-.651 1.462z" fill="#2e7f89"/><path d="M35.432 25.872c0-1.273-.86-1.924-1.924-1.924-.859 0-1.763.563-2.01 1.341-.248-.778-1.151-1.341-2.011-1.341-1.063 0-1.924.651-1.924 1.924 0 2.38 3.984 5.163 3.984 5.163s3.885-2.56 3.885-5.163z" fill="#255A6B"/><path d="M37.424 18.39a2.207 2.207 0 1 0 0-4.412 2.207 2.207 0 0 0 0 4.413zM28.219 13.509a3.077 3.077 0 1 0 0-6.155 3.077 3.077 0 0 0 0 6.155z" fill="#2e7f89"/><path d="M39.69 48.065c.146 0 .29-.029.424-.083 10.873-4.306 13.146-9.348 14.54-14.157 1.315-4.545.183-8.447.183-8.447a7.701 7.701 0 0 1-.117-.453s-.409-1.668-1.418-1.344c-.596.19-.789 1.134-.861 1.757a10.82 10.82 0 0 0-.044.843c0 1.06-.117 5.118-2.415 8.11-1.917 2.497-5.069 4.485-6.876 4.972l-.021.006c-.49.117-.758-.469-.396-.82 1.083-1.038 2.11-1.875 2.729-2.661 1.908-2.417 2.11-3.583 2.265-4.522.276-1.628-.917-1.955-1.683-.851-.57.82-2.66 3.45-4.614 4.745-1.844 1.22-2.276 1.478-3.775 2.964-.57.565-1.326 1.576-2.022 2.549-1.066 1.486-1.65 3.847-1.933 5.982a1.249 1.249 0 0 0 1.241 1.406l4.793.004zM23.085 47.98c.135.055.278.083.423.084h4.797a1.248 1.248 0 0 0 1.24-1.407c-.282-2.135-.867-4.496-1.93-5.982-.697-.972-1.454-1.984-2.024-2.548-1.5-1.486-1.931-1.745-3.775-2.965-1.954-1.29-4.045-3.922-4.614-4.745-.764-1.104-1.959-.777-1.683.85.16.938.357 2.11 2.265 4.523.617.782 1.64 1.623 2.73 2.661.361.352.093.938-.397.82l-.021-.005c-1.807-.488-4.96-2.475-6.875-4.972-2.297-2.992-2.42-7.05-2.415-8.11a7.92 7.92 0 0 0-.058-.834c-.08-.58-.252-1.574-.848-1.765-1.009-.323-1.418 1.344-1.418 1.344-.03.126-.086.33-.117.454 0 0-1.132 3.902.184 8.446 1.39 4.804 3.663 9.846 14.536 14.151z" fill="#B0DCD2"/></svg>